<?xml version="1.0" encoding="UTF-8" standalone="no"?>
<svg
   xmlns:dc="http://purl.org/dc/elements/1.1/"
   xmlns:cc="http://creativecommons.org/ns#"
   xmlns:rdf="http://www.w3.org/1999/02/22-rdf-syntax-ns#"
   xmlns:svg="http://www.w3.org/2000/svg"
   xmlns="http://www.w3.org/2000/svg"
   viewBox="0 0 256.99999 256.99999"
   height="257"
   width="257"
   id="foodify"
   version="1.1">
  <metadata
     id="metadata8">
    <rdf:RDF>
      <cc:Work
         rdf:about="">
        <dc:format>image/svg+xml</dc:format>
        <dc:type
           rdf:resource="http://purl.org/dc/dcmitype/StillImage" />
        <dc:title></dc:title>
      </cc:Work>
    </rdf:RDF>
  </metadata>
  <defs
     id="defs6" />
  <path
     id="heart-balloon"
     d="M 83.386749,1.9353671 C 44.598788,-1.0489229 13.8755,40.683828 13.876576,97.726407 13.929115,147.94623 53.887751,190.10561 103.47084,198.65146 l -12.755189,56.75291 c 0,0 61.966419,-49.27262 92.751029,-76.13558 30.78473,-26.86307 55.21685,-52.39533 58.21226,-84.146881 2.9953,-31.751601 -21.71123,-70.425721 -50.02315,-77.300881 -28.31193,-6.87515 -47.27272,13.02387 -53.27686,11.20609 -6.00419,-1.8178 -16.20426,-24.1074409 -54.992181,-27.0917509 z"
     style="fill:#710700;fill-opacity:1;stroke:#ff892c;stroke-width:2.38127446;stroke-linecap:round;stroke-linejoin:round;stroke-miterlimit:4;stroke-dasharray:none;stroke-opacity:1" />
  <path
     id="fork"
     d="m 101.97091,45.107008 c -0.49802,-0.003 -0.99379,0.0593 -1.47085,0.18594 -1.74244,0.46759 -3.059292,1.73993 -3.435906,3.31959 0,0 -8.986985,31.151813 -15.981701,57.828432 -6.994773,26.67662 17.658807,35.6578 10.342495,58.17159 -7.316309,22.51378 0,0 -9.022741,28.05074 l 8.313501,62.74095 c 0,0 17.787772,-80.08824 19.179272,-85.40261 1.39145,-5.31435 5.45317,-13.80261 13.65047,-19.592 8.86629,-6.2619 17.19166,-7.85225 24.28363,-24.3592 7.09196,-16.507 16.67356,-59.706242 16.67356,-59.706242 0.48441,-1.60964 -0.0222,-3.33384 -1.32553,-4.49977 -0.92661,-0.8273 -2.16672,-1.29208 -3.45913,-1.29644 -0.49797,-0.003 -0.99371,0.0609 -1.47082,0.1918 -1.74211,0.48395 -3.05896,1.80077 -3.43588,3.43589 0,0 -10.59624,35.461836 -11.90057,41.032752 -1.30434,5.57097 -8.41557,-0.25646 -8.48213,-2.08127 -0.0667,-1.82474 10.73784,-42.067612 10.73784,-42.067612 0.48385,-1.62221 -0.0224,-3.35963 -1.32552,-4.53464 -0.92646,-0.8344 -2.16654,-1.30338 -3.45911,-1.30808 -0.49789,-0.003 -0.99368,0.0605 -1.47086,0.19184 -1.74256,0.48805 -3.05943,1.8161 -3.43587,3.46491 0,0 -9.48967,32.04951 -10.81373,38.823144 -1.32413,6.773638 -11.26051,5.243868 -9.57821,-2.222526 1.68228,-7.466374 10.74707,-39.769038 10.74707,-39.769038 0.48221,-1.6307 -0.0248,-3.37662 -1.32549,-4.55791 -0.9258,-0.84077 -2.16599,-1.31392 -3.45913,-1.31968 -0.49782,-0.004 -0.99362,0.0601 -1.47087,0.19186 -1.74325,0.49144 -3.06034,1.82855 -3.43587,3.4882 0,0 -10.96459,38.565975 -11.18297,39.656925 -0.21809,1.091018 -10.680502,5.426092 -8.621922,-3.850397 2.058572,-9.276513 10.421642,-38.608718 10.421642,-38.608718 0.48293,-1.55368 -0.0226,-3.21737 -1.32551,-4.34278 -0.92599,-0.80042 -2.16612,-1.25067 -3.45911,-1.25579 z"
     style="fill:#ffffff;fill-opacity:1;stroke:#ff892c;stroke-width:2.38127446;stroke-linecap:butt;stroke-linejoin:miter;stroke-miterlimit:4;stroke-dasharray:none;stroke-opacity:1" />
</svg>
