<?xml version="1.0" standalone="no"?>
<!DOCTYPE svg PUBLIC "-//W3C//DTD SVG 20010904//EN"
 "http://www.w3.org/TR/2001/REC-SVG-20010904/DTD/svg10.dtd">
<svg version="1.0" xmlns="http://www.w3.org/2000/svg"
 width="512.000000pt" height="512.000000pt" viewBox="0 0 512.000000 512.000000"
 preserveAspectRatio="xMidYMid meet">
<metadata>
Created by potrace 1.14, written by Peter Selinger 2001-2017
</metadata>
<g transform="translate(0.000000,512.000000) scale(0.100000,-0.100000)"
fill="#000000" stroke="none">
<path d="M1437 5060 c-313 -57 -606 -276 -806 -603 -166 -272 -274 -622 -311
-1009 -16 -158 -8 -461 14 -583 100 -548 429 -1034 921 -1358 97 -64 372 -204
381 -194 3 3 49 137 102 299 94 290 95 294 96 393 0 119 -17 171 -125 386
-106 211 -123 269 -123 419 -1 138 -11 92 131 610 102 375 212 760 224 782 24
44 113 62 169 33 30 -15 60 -61 60 -89 0 -8 -36 -142 -79 -298 -110 -394 -144
-535 -137 -563 8 -31 40 -40 90 -23 l39 13 114 405 c63 223 122 416 132 430
23 32 88 55 126 46 40 -10 95 -68 95 -101 0 -14 -45 -189 -99 -388 -125 -457
-130 -480 -110 -515 19 -35 86 -43 111 -15 9 10 30 72 48 138 56 215 191 679
206 711 21 44 70 68 124 61 49 -6 96 -45 105 -87 4 -17 -17 -113 -59 -271 -36
-134 -86 -329 -112 -432 l-47 -188 23 -24 c29 -31 75 -48 89 -32 5 7 48 145
95 307 164 568 162 562 196 593 25 22 40 27 81 27 45 0 55 -4 85 -34 27 -27
34 -42 34 -73 0 -77 -177 -773 -266 -1042 -79 -241 -174 -409 -282 -499 -26
-22 -102 -74 -170 -117 -149 -94 -216 -154 -281 -250 -81 -121 -65 -61 -336
-1285 -64 -289 -118 -531 -121 -539 -5 -17 -29 -34 226 169 755 604 1429 1163
1740 1445 174 158 439 430 544 557 226 278 365 545 423 818 25 119 25 382 0
500 -32 146 -76 270 -148 415 -89 179 -176 302 -314 441 -166 167 -322 261
-515 310 -111 28 -344 26 -459 -4 -107 -28 -233 -79 -395 -158 -176 -87 -191
-87 -288 4 -154 143 -202 184 -271 231 -150 101 -317 170 -512 211 -112 23
-377 35 -458 20z"/>
</g>
</svg>
